<?xml version="1.0" encoding="utf-8"?>
<!-- Generator: Adobe Illustrator 19.0.0, SVG Export Plug-In . SVG Version: 6.00 Build 0)  -->
<svg version="1.2" baseProfile="tiny" xmlns="http://www.w3.org/2000/svg" xmlns:xlink="http://www.w3.org/1999/xlink" x="0px"
	 y="0px" viewBox="674 -144 1960 1080" xml:space="preserve">
<g id="Layer_1">
	<image width="1960" height="996" xlink:href="1DB9226.png"  transform="matrix(1 0 0 1 674 -144)">
	</image>
	<image width="1960" height="996" xlink:href="1DB922A.png"  transform="matrix(1 0 0 1 674 -144)">
	</image>
</g>
<g id="Layer_2">
	<path fill="none" stroke="#71CCC3" stroke-width="7" stroke-miterlimit="10" d="M2160.6,483c5.5-1.1,9.7-4.2,10.9-11.5
		c0.8-8.8,5-13.7,13.3-14c8.7-0.1,13.5-5,14.3-15c0.5-9,4.7-14.1,13.7-14.4"/>
	<polygon fill="#71CCC3" points="2178.3,485.7 2151.1,502 2158.8,471.3 	"/>
</g>
<g id="Layer_3">
	<path fill="none" stroke="#3285D5" stroke-width="8" stroke-miterlimit="10" d="M1868.6,97.3c3.4,4.4,7.9,6.9,15.1,4.9
		c8.2-3.1,14.5-1.4,18.4,5.9c3.8,7.8,10.3,10.1,19.7,6.4c8.3-3.5,14.7-1.8,18.9,6.1c3,6.9,8.4,10,18.5,6c7.5-4,13.1-2.1,17,5.5
		c3.8,7.6,9.2,9.9,16.8,5.4c6.9-3.8,12-0.9,14.2,4.6"/>
	<path fill="none" stroke="#3285D5" stroke-width="8" stroke-miterlimit="10" d="M1874.3,79.8c3.4,4.4,7.9,6.9,15.1,4.9
		c8.2-3.1,14.5-1.4,18.4,5.9c3.8,7.8,10.3,10.1,19.7,6.4c8.3-3.5,14.7-1.8,18.9,6.1c3,6.9,8.4,10,18.5,6c7.5-4,13.1-2.1,17,5.5
		c3.8,7.6,9.2,9.9,16.8,5.4c6.9-3.8,12-0.9,14.2,4.6"/>
	<path fill="none" stroke="#3285D5" stroke-width="8" stroke-miterlimit="10" d="M1880,62.2c3.4,4.4,7.9,6.9,15.1,4.9
		c8.2-3.1,14.5-1.4,18.4,5.9c3.8,7.8,10.3,10.1,19.7,6.4c8.3-3.5,14.7-1.8,18.9,6.1c3,6.9,8.4,10,18.5,6c7.5-4,13.1-2.1,17,5.5
		c3.8,7.6,9.2,9.9,16.8,5.4c6.9-3.8,12-0.9,14.2,4.6"/>
	<g>
		<path fill="#FC638F" d="M1208.3,332.7l-17.3-4.8c-0.5-0.1-0.7-0.6-0.6-1.1l4-14.4c0.1-0.5,0.6-0.7,1.1-0.6l17.3,4.8
			c0.5,0.1,0.7,0.6,0.6,1.1l-4,14.4C1209.3,332.5,1208.8,332.8,1208.3,332.7z"/>
		<path fill="#FC638F" d="M1226.4,321.4l-17.3-4.8c-0.5-0.1-0.7-0.6-0.6-1.1l4-14.4c0.1-0.5,0.6-0.7,1.1-0.6l17.3,4.8
			c0.5,0.1,0.7,0.6,0.6,1.1l-4,14.4C1227.3,321.3,1226.9,321.5,1226.4,321.4z"/>
		<path fill="#FC638F" d="M1244.5,310.1l-17.3-4.8c-0.5-0.1-0.7-0.6-0.6-1.1l4-14.4c0.1-0.5,0.6-0.7,1.1-0.6l17.3,4.8
			c0.5,0.1,0.7,0.6,0.6,1.1l-4,14.4C1245.4,310,1244.9,310.3,1244.5,310.1z"/>
		<path fill="#FC638F" d="M1262.5,298.9l-17.3-4.8c-0.5-0.1-0.7-0.6-0.6-1.1l4-14.4c0.1-0.5,0.6-0.7,1.1-0.6l17.3,4.8
			c0.5,0.1,0.7,0.6,0.6,1.1l-4,14.4C1263.5,298.7,1263,299,1262.5,298.9z"/>
		<path fill="#FC638F" d="M1280.6,287.6l-17.3-4.8c-0.5-0.1-0.7-0.6-0.6-1.1l4-14.4c0.1-0.5,0.6-0.7,1.1-0.6l17.3,4.8
			c0.5,0.1,0.7,0.6,0.6,1.1l-4,14.4C1281.6,287.4,1281.1,287.7,1280.6,287.6z"/>
		<path fill="#FC638F" d="M1298.7,276.3l-17.3-4.8c-0.5-0.1-0.7-0.6-0.6-1.1l4-14.4c0.1-0.5,0.6-0.7,1.1-0.6l17.3,4.8
			c0.5,0.1,0.7,0.6,0.6,1.1l-4,14.4C1299.6,276.2,1299.1,276.4,1298.7,276.3z"/>
		<path fill="#FC638F" d="M1316.7,265l-17.3-4.8c-0.5-0.1-0.7-0.6-0.6-1.1l4-14.4c0.1-0.5,0.6-0.7,1.1-0.6l17.3,4.8
			c0.5,0.1,0.7,0.6,0.6,1.1l-4,14.4C1317.7,264.9,1317.2,265.2,1316.7,265z"/>
		<path fill="#FC638F" d="M1334.8,253.8l-17.3-4.8c-0.5-0.1-0.7-0.6-0.6-1.1l4-14.4c0.1-0.5,0.6-0.7,1.1-0.6l17.3,4.8
			c0.5,0.1,0.7,0.6,0.6,1.1l-4,14.4C1335.8,253.6,1335.3,253.9,1334.8,253.8z"/>
		<path fill="#FC638F" d="M1189.7,337.6L1189.7,337.6c-1.2-0.3-1.8-1.5-1.5-2.7l4.2-15.1l2.1,0.6L1189.7,337.6z"/>
		<path fill="#FC638F" d="M1340.9,226.7L1340.9,226.7c1.2,0.3,1.8,1.5,1.5,2.7l-4.2,15.1l-2.1-0.6L1340.9,226.7z"/>
	</g>
</g>
</svg>
